<svg id="calendar" xmlns="http://www.w3.org/2000/svg" width="20.075" height="20.075" viewBox="0 0 20.075 20.075">
  <g id="Group_31" data-name="Group 31">
    <g id="Group_30" data-name="Group 30">
      <ellipse id="Ellipse_5" data-name="Ellipse 5" cx="1.28" cy="0.853" rx="1.28" ry="0.853" transform="translate(13.649 7.279)" fill="#fff"/>
      <path id="Path_20" data-name="Path 20" d="M16.938,1.568H15.919V.784a.784.784,0,0,0-1.568,0v.784H10.783V.784a.784.784,0,1,0-1.568,0v.784H5.685V.784a.784.784,0,1,0-1.568,0v.784h-.98A3.14,3.14,0,0,0,0,4.705V16.938a3.14,3.14,0,0,0,3.137,3.137h6a.784.784,0,1,0,0-1.568h-6a1.57,1.57,0,0,1-1.568-1.568V4.705A1.57,1.57,0,0,1,3.137,3.137h.98v.784a.784.784,0,0,0,1.568,0V3.137H9.214v.784a.784.784,0,0,0,1.568,0V3.137h3.568v.784a.784.784,0,0,0,1.568,0V3.137h1.019a1.57,1.57,0,0,1,1.568,1.568v4.47a.784.784,0,1,0,1.568,0V4.705A3.14,3.14,0,0,0,16.938,1.568Z" fill="#fff"/>
      <path id="Path_21" data-name="Path 21" d="M274.744,270a4.744,4.744,0,1,0,4.744,4.744A4.75,4.75,0,0,0,274.744,270Zm0,7.92a3.176,3.176,0,1,1,3.176-3.176A3.18,3.18,0,0,1,274.744,277.92Z" transform="translate(-259.413 -259.413)" fill="#fff"/>
      <path id="Path_22" data-name="Path 22" d="M372.921,331.608h-.353v-.823a.784.784,0,1,0-1.568,0v1.608a.784.784,0,0,0,.784.784h1.137a.784.784,0,1,0,0-1.568Z" transform="translate(-356.453 -317.061)" fill="#fff"/>
      <ellipse id="Ellipse_6" data-name="Ellipse 6" cx="0.427" cy="0.853" rx="0.427" ry="0.853" transform="translate(11.09 7.279)" fill="#fff"/>
      <circle id="Ellipse_7" data-name="Ellipse 7" cx="0.853" cy="0.853" r="0.853" transform="translate(7.678 10.691)" fill="#fff"/>
      <ellipse id="Ellipse_8" data-name="Ellipse 8" cx="0.427" cy="0.853" rx="0.427" ry="0.853" transform="translate(4.265 7.279)" fill="#fff"/>
      <ellipse id="Ellipse_9" data-name="Ellipse 9" cx="0.427" cy="0.853" rx="0.427" ry="0.853" transform="translate(4.265 10.691)" fill="#fff"/>
      <circle id="Ellipse_10" data-name="Ellipse 10" cx="0.427" cy="0.427" r="0.427" transform="translate(4.265 14.957)" fill="#fff"/>
      <ellipse id="Ellipse_11" data-name="Ellipse 11" cx="0.853" cy="0.427" rx="0.853" ry="0.427" transform="translate(7.678 14.957)" fill="#fff"/>
      <circle id="Ellipse_12" data-name="Ellipse 12" cx="0.853" cy="0.853" r="0.853" transform="translate(7.678 7.279)" fill="#fff"/>
    </g>
  </g>
</svg>
