<svg xmlns="http://www.w3.org/2000/svg" width="27.516" height="15.973" viewBox="0 0 27.516 15.973">
  <g id="audience" transform="translate(0.5 0.5)">
    <g id="Group_7" data-name="Group 7" transform="translate(7.641 8.835)">
      <g id="Group_6" data-name="Group 6">
        <path id="Path_1" data-name="Path 1" d="M156.405,282.616a4.666,4.666,0,0,0-2.243-.571H152.23a4.689,4.689,0,0,0-4.69,4.69v1.447h11.312v-1.447A4.689,4.689,0,0,0,156.405,282.616Z" transform="translate(-147.54 -282.045)" fill="none" stroke="#fff" stroke-linecap="round" stroke-linejoin="round" stroke-width="1"/>
      </g>
    </g>
    <g id="Group_9" data-name="Group 9" transform="translate(17.69 7.55)">
      <g id="Group_8" data-name="Group 8">
        <path id="Path_2" data-name="Path 2" d="M345.729,257.225h-1.605a4.644,4.644,0,0,0-2.544.755A6.255,6.255,0,0,1,344.4,263.2v.681h6.009V261.9A4.682,4.682,0,0,0,345.729,257.225Z" transform="translate(-341.58 -257.225)" fill="none" stroke="#fff" stroke-linecap="round" stroke-linejoin="round" stroke-width="1"/>
      </g>
    </g>
    <g id="Group_11" data-name="Group 11" transform="translate(0 7.55)">
      <g id="Group_10" data-name="Group 10">
        <path id="Path_3" data-name="Path 3" d="M6.282,257.225H4.676A4.682,4.682,0,0,0,0,261.9v1.98H6.087V263.2a6.259,6.259,0,0,1,2.778-5.2A4.646,4.646,0,0,0,6.282,257.225Z" transform="translate(0 -257.225)" fill="none" stroke="#fff" stroke-linecap="round" stroke-linejoin="round" stroke-width="1"/>
      </g>
    </g>
    <g id="Group_13" data-name="Group 13" transform="translate(17.884 0.516)">
      <g id="Group_12" data-name="Group 12">
        <path id="Path_4" data-name="Path 4" d="M348.486,121.416h-.025a3.328,3.328,0,0,0,.03,6.645h.025a3.051,3.051,0,0,0,2.239-1.011,3.4,3.4,0,0,0,.885-2.337A3.246,3.246,0,0,0,348.486,121.416Z" transform="translate(-345.337 -121.416)" fill="none" stroke="#fff" stroke-linecap="round" stroke-linejoin="round" stroke-width="1"/>
      </g>
    </g>
    <g id="Group_15" data-name="Group 15" transform="translate(2.327 0.516)">
      <g id="Group_14" data-name="Group 14">
        <path id="Path_5" data-name="Path 5" d="M48.087,121.416h-.025a3.328,3.328,0,0,0,.03,6.645h.025a3.051,3.051,0,0,0,2.239-1.011,3.4,3.4,0,0,0,.885-2.337A3.246,3.246,0,0,0,48.087,121.416Z" transform="translate(-44.938 -121.416)" fill="none" stroke="#fff" stroke-linecap="round" stroke-linejoin="round" stroke-width="1"/>
      </g>
    </g>
    <g id="Group_17" data-name="Group 17" transform="translate(9.664)">
      <g id="Group_16" data-name="Group 16">
        <path id="Path_6" data-name="Path 6" d="M190.233,111.445a3.744,3.744,0,0,0-3.633,3.839,3.864,3.864,0,0,0,2.08,3.47,3.455,3.455,0,0,0,3.106,0,3.864,3.864,0,0,0,2.08-3.47A3.745,3.745,0,0,0,190.233,111.445Z" transform="translate(-186.6 -111.445)" fill="none" stroke="#fff" stroke-linecap="round" stroke-linejoin="round" stroke-width="1"/>
      </g>
    </g>
  </g>
</svg>
