<svg id="calendar_1_" data-name="calendar (1)" xmlns="http://www.w3.org/2000/svg" width="20.816" height="20.816" viewBox="0 0 20.816 20.816">
  <g id="Group_573" data-name="Group 573">
    <g id="Group_572" data-name="Group 572">
      <ellipse id="Ellipse_217" data-name="Ellipse 217" cx="0.5" cy="1" rx="0.5" ry="1" transform="translate(11.408 7.408)" fill="#5d3caf"/>
      <circle id="Ellipse_218" data-name="Ellipse 218" cx="0.5" cy="0.5" r="0.5" transform="translate(11.408 11.408)" fill="#5d3caf"/>
      <circle id="Ellipse_219" data-name="Ellipse 219" cx="1" cy="1" r="1" transform="translate(14.408 7.408)" fill="#5d3caf"/>
      <path id="Path_406" data-name="Path 406" d="M20,10.164a.813.813,0,0,0,.813-.813V4.879a3.256,3.256,0,0,0-3.253-3.253H16.507V.813a.813.813,0,1,0-1.626,0v.813h-3.7V.813a.813.813,0,1,0-1.626,0v.813H5.9V.813a.813.813,0,0,0-1.626,0v.813H3.253A3.256,3.256,0,0,0,0,4.879V17.564a3.256,3.256,0,0,0,3.253,3.253H13.5a.816.816,0,0,0,.082,0c.027,0,.054,0,.08,0a.813.813,0,0,0,.586-.249l6.342-6.586A.813.813,0,0,0,20,12.6H16.1a3.256,3.256,0,0,0-3.253,3.253V19.19h-9.6a1.628,1.628,0,0,1-1.626-1.626V4.879A1.628,1.628,0,0,1,3.253,3.253H4.269v.813a.813.813,0,0,0,1.626,0V3.253H9.554v.813a.813.813,0,0,0,1.626,0V3.253h3.7v.813a.813.813,0,1,0,1.626,0V3.253h1.057A1.628,1.628,0,0,1,19.19,4.879V9.351A.813.813,0,0,0,20,10.164Zm-5.529,5.692A1.628,1.628,0,0,1,16.1,14.23h1.991l-3.617,3.757Z" fill="#5d3caf"/>
      <ellipse id="Ellipse_220" data-name="Ellipse 220" cx="0.5" cy="1" rx="0.5" ry="1" transform="translate(4.408 7.408)" fill="#5d3caf"/>
      <circle id="Ellipse_221" data-name="Ellipse 221" cx="0.5" cy="0.5" r="0.5" transform="translate(8.408 11.408)" fill="#5d3caf"/>
      <ellipse id="Ellipse_222" data-name="Ellipse 222" cx="0.5" cy="1" rx="0.5" ry="1" transform="translate(4.408 14.408)" fill="#5d3caf"/>
      <circle id="Ellipse_223" data-name="Ellipse 223" cx="0.5" cy="0.5" r="0.5" transform="translate(4.408 11.408)" fill="#5d3caf"/>
      <ellipse id="Ellipse_224" data-name="Ellipse 224" cx="0.5" cy="1" rx="0.5" ry="1" transform="translate(8.408 14.408)" fill="#5d3caf"/>
      <ellipse id="Ellipse_225" data-name="Ellipse 225" cx="0.5" cy="1" rx="0.5" ry="1" transform="translate(8.408 7.408)" fill="#5d3caf"/>
    </g>
  </g>
</svg>
