<svg id="cancel-button" xmlns="http://www.w3.org/2000/svg" width="27" height="27" viewBox="0 0 27 27">
  <g id="Group_644" data-name="Group 644">
    <path id="Path_434" data-name="Path 434" d="M13.5,0A13.5,13.5,0,1,0,27,13.5,13.515,13.515,0,0,0,13.5,0Zm0,24.787A11.287,11.287,0,1,1,24.787,13.5,11.3,11.3,0,0,1,13.5,24.788Z" transform="translate(0 -0.001)" fill="#7d00b5"/>
    <path id="Path_435" data-name="Path 435" d="M95.3,93.738l3.818-3.818a1.107,1.107,0,0,0-1.565-1.565l-3.818,3.818L89.92,88.355a1.107,1.107,0,0,0-1.565,1.565l3.818,3.818-3.818,3.818a1.107,1.107,0,0,0,1.565,1.565L93.738,95.3l3.818,3.818a1.107,1.107,0,1,0,1.565-1.565Z" transform="translate(-80.238 -80.238)" fill="#7d00b5"/>
  </g>
</svg>
