<svg id="clock" xmlns="http://www.w3.org/2000/svg" width="21.079" height="21.079" viewBox="0 0 21.079 21.079">
  <path id="Path_411" data-name="Path 411" d="M18.861,5.546a.878.878,0,0,0-.408,1.173,8.694,8.694,0,0,1,.87,3.82A8.783,8.783,0,1,1,10.54,1.757a8.677,8.677,0,0,1,5.452,1.895.878.878,0,1,0,1.093-1.375,10.541,10.541,0,1,0,3.994,8.263,10.432,10.432,0,0,0-1.045-4.585A.877.877,0,0,0,18.861,5.546Zm0,0" fill="#5d37b2"/>
  <path id="Path_412" data-name="Path 412" d="M176.878,64a.879.879,0,0,0-.878.878v6.148a.879.879,0,0,0,.878.878h4.391a.878.878,0,0,0,0-1.757h-3.513v-5.27A.879.879,0,0,0,176.878,64Zm0,0" transform="translate(-166.339 -60.487)" fill="#5d37b2"/>
</svg>
