<svg xmlns="http://www.w3.org/2000/svg" width="24.022" height="30" viewBox="0 0 24.022 30"><defs>

<!-- <style>.a{fill:#fff;}</style></defs> -->

<path class="a" style="fill:#fff;" d="M65.039,85.4H51.032a2.383,2.383,0,0,0-2.382,2.382v20.1a2.383,2.383,0,0,0,2.382,2.382H65.039a2.383,2.383,0,0,0,2.382-2.382v-20.1A2.391,2.391,0,0,0,65.039,85.4Zm.71,22.474a.716.716,0,0,1-.716.716H51.026a.716.716,0,0,1-.716-.716V87.782a.716.716,0,0,1,.716-.716H65.033a.716.716,0,0,1,.716.716Z" transform="translate(-48.65 -80.262)"/><path class="a" d="M151.839,0H137.832a2.383,2.383,0,0,0-2.382,2.382.833.833,0,0,0,1.666,0,.716.716,0,0,1,.716-.716h14.007a.716.716,0,0,1,.716.716v20.1a.716.716,0,0,1-.716.716.833.833,0,0,0,0,1.666,2.383,2.383,0,0,0,2.382-2.382V2.382A2.383,2.383,0,0,0,151.839,0Z" transform="translate(-130.199)"/></svg>