<svg xmlns="http://www.w3.org/2000/svg" width="13.465" height="13.397" viewBox="0 0 13.465 13.397">
  <g id="edit_1_" data-name="edit (1)" transform="translate(0 -0.261)">
    <path id="Path_416" data-name="Path 416" d="M12.428,46.274a.335.335,0,0,0-.335.335v2.977a1.007,1.007,0,0,1-1.006,1.006H1.677A1.007,1.007,0,0,1,.671,49.587V40.849a1.007,1.007,0,0,1,1.006-1.006H4.654a.335.335,0,0,0,0-.671H1.677A1.679,1.679,0,0,0,0,40.849v8.739a1.679,1.679,0,0,0,1.677,1.677h9.409a1.679,1.679,0,0,0,1.677-1.677V46.61A.335.335,0,0,0,12.428,46.274Zm0,0" transform="translate(0 -37.606)" fill="#fff"/>
    <path id="Path_417" data-name="Path 417" d="M117.192.7a1.509,1.509,0,0,0-2.134,0l-5.983,5.983a.335.335,0,0,0-.086.148l-.787,2.84a.335.335,0,0,0,.413.413l2.84-.787a.335.335,0,0,0,.148-.086l5.983-5.983a1.511,1.511,0,0,0,0-2.134Zm-7.386,6.2,4.9-4.9,1.579,1.579-4.9,4.9Zm-.315.633L110.752,8.8l-1.745.483Zm7.621-4.78-.356.356-1.579-1.579.356-.356a.838.838,0,0,1,1.186,0l.394.394A.84.84,0,0,1,117.111,2.756Zm0,0" transform="translate(-104.562)" fill="#fff"/>
  </g>
</svg>
