<svg id="icon_social_facebook" data-name="icon / social / facebook" xmlns="http://www.w3.org/2000/svg" width="24" height="24" viewBox="0 0 24 24">
  <g id="social_facebook" data-name="social facebook">
    <path id="icon" d="M22,1.21V20.79A1.21,1.21,0,0,1,20.79,22H15.18V13.481H18l.43-3.321H15.18V8c0-1,.27-1.62,1.65-1.62h1.76v-3A23.807,23.807,0,0,0,16,3.32a4,4,0,0,0-4.28,3.7,4.076,4.076,0,0,0,.01.69v2.45H8.88v3.321h2.87V22H1.21A1.21,1.21,0,0,1,0,20.79V1.21A1.21,1.21,0,0,1,1.21,0H20.79A1.21,1.21,0,0,1,22,1.21" transform="translate(1 1)" fill="#fff"/>
  </g>
</svg>
