<svg id="icon_social_linkedin" data-name="icon / social / linkedin" xmlns="http://www.w3.org/2000/svg" width="24" height="24" viewBox="0 0 24 24">
  <g id="social_linkedin" data-name="social linkedin">
    <path id="icon" d="M21.633,22h-4.4a.366.366,0,0,1-.366-.365V13.2a2.486,2.486,0,0,0-.519-1.678,1.537,1.537,0,0,0-1.185-.487,2.975,2.975,0,0,0-1.962.854v9.745a.367.367,0,0,1-.367.365h-4.4a.367.367,0,0,1-.367-.365V7.7a.368.368,0,0,1,.367-.367h4.4A.368.368,0,0,1,13.2,7.7V8A7.931,7.931,0,0,1,17.5,6.62c1.652,0,4.434.711,4.5,5.475v9.539A.366.366,0,0,1,21.633,22ZM4.766,22H.366A.366.366,0,0,1,0,21.634V7.7a.367.367,0,0,1,.366-.367h4.4a.367.367,0,0,1,.366.367V21.634A.366.366,0,0,1,4.766,22ZM2.566,5.133A2.566,2.566,0,1,1,5.133,2.567,2.569,2.569,0,0,1,2.566,5.133Z" transform="translate(1 1)" fill="#fff"/>
  </g>
</svg>
