<svg xmlns="http://www.w3.org/2000/svg" width="12.312" height="15.973" viewBox="0 0 12.312 15.973">
  <g id="Group_649" data-name="Group 649" transform="translate(-7.141 0.5)">
    <g id="Group_7" data-name="Group 7" transform="translate(7.641 8.835)">
      <g id="Group_6" data-name="Group 6">
        <path id="Path_1" data-name="Path 1" d="M156.405,282.616a4.666,4.666,0,0,0-2.243-.571H152.23a4.689,4.689,0,0,0-4.69,4.69v1.447h11.312v-1.447A4.689,4.689,0,0,0,156.405,282.616Z" transform="translate(-147.54 -282.045)" fill="none" stroke="#fff" stroke-linecap="round" stroke-linejoin="round" stroke-width="1"/>
      </g>
    </g>
    <g id="Group_17" data-name="Group 17" transform="translate(9.664)">
      <g id="Group_16" data-name="Group 16">
        <path id="Path_6" data-name="Path 6" d="M190.233,111.445a3.744,3.744,0,0,0-3.633,3.839,3.864,3.864,0,0,0,2.08,3.47,3.455,3.455,0,0,0,3.106,0,3.864,3.864,0,0,0,2.08-3.47A3.745,3.745,0,0,0,190.233,111.445Z" transform="translate(-186.6 -111.445)" fill="none" stroke="#fff" stroke-linecap="round" stroke-linejoin="round" stroke-width="1"/>
      </g>
    </g>
  </g>
</svg>
