<svg id="logout" xmlns="http://www.w3.org/2000/svg" width="22.618" height="20.639" viewBox="0 0 22.618 20.639">
  <g id="Group_42" data-name="Group 42" transform="translate(6.591 7.95)">
    <g id="Group_41" data-name="Group 41">
      <path id="Path_30" data-name="Path 30" d="M164.942,204.186l-2.42-1.706a.663.663,0,0,0-1.045.542v1.044h-11.62a.663.663,0,1,0,0,1.325h11.62v1.043a.663.663,0,0,0,1.045.542l2.42-1.706A.664.664,0,0,0,164.942,204.186Z" transform="translate(-149.195 -202.358)" fill="#fff"/>
    </g>
  </g>
  <g id="Group_44" data-name="Group 44">
    <g id="Group_43" data-name="Group 43" transform="translate(0 0)">
      <path id="Path_31" data-name="Path 31" d="M19.017,36.972a.663.663,0,0,0-.905.242,8.994,8.994,0,1,1,0-8.994.663.663,0,0,0,1.147-.664,10.32,10.32,0,1,0,0,10.321A.663.663,0,0,0,19.017,36.972Z" transform="translate(0 -22.397)" fill="#fff"/>
    </g>
  </g>
</svg>
