<svg xmlns="http://www.w3.org/2000/svg" width="21.554" height="20.708" viewBox="0 0 21.554 20.708">
  <g id="paper-plane" transform="translate(0.501 0.514)">
    <path id="Path_422" data-name="Path 422" d="M8.75,17.612v3.971a.642.642,0,0,0,1.159.38L12.232,18.8Z" transform="translate(-1.258 -2.532)" fill="none" stroke="#fff" stroke-width="1"/>
    <path id="Path_423" data-name="Path 423" d="M20.28.119a.642.642,0,0,0-.67-.046L.345,10.134a.642.642,0,0,0,.089,1.177L5.79,13.142,17.2,3.389,8.37,14.023l8.976,3.068a.657.657,0,0,0,.207.034.642.642,0,0,0,.635-.547L20.543.737A.643.643,0,0,0,20.28.119Z" transform="translate(0)" fill="none" stroke="#fff" stroke-width="1"/>
  </g>
</svg>
