<svg id="bulb-on" xmlns="http://www.w3.org/2000/svg" width="16.566" height="23.236" viewBox="0 0 16.566 23.236">
  <g id="Group_32" data-name="Group 32">
    <path id="Path_23" data-name="Path 23" d="M120.621,73.684a5.983,5.983,0,0,0-5.977,5.977,10.205,10.205,0,0,0,1.422,4.347,9.2,9.2,0,0,1,1.291,3.792.551.551,0,0,0,.551.551h5.426a.551.551,0,0,0,.551-.551,9.155,9.155,0,0,1,1.306-3.854,9.957,9.957,0,0,0,1.407-4.285A5.983,5.983,0,0,0,120.621,73.684Z" transform="translate(-112.337 -70.058)" fill="none" stroke="#fff" stroke-width="1"/>
    <path id="Path_24" data-name="Path 24" d="M362.6,93.307a.464.464,0,0,0,.233-.062l1.149-.663a.466.466,0,1,0-.466-.807l-1.149.663a.466.466,0,0,0,.233.869Z" transform="translate(-347.647 -87.199)" fill="#fff"/>
    <path id="Path_25" data-name="Path 25" d="M363.98,262.389l-1.149-.663a.466.466,0,1,0-.466.807l1.149.663a.466.466,0,0,0,.466-.807Z" transform="translate(-347.646 -248.787)" fill="#fff"/>
    <path id="Path_26" data-name="Path 26" d="M69.155,261.724l-1.149.663a.466.466,0,1,0,.466.807l1.149-.663a.466.466,0,0,0-.466-.807Z" transform="translate(-67.773 -248.785)" fill="#fff"/>
    <path id="Path_27" data-name="Path 27" d="M69.621,92.44l-1.149-.663a.466.466,0,0,0-.466.807l1.149.663a.466.466,0,1,0,.466-.807Z" transform="translate(-67.773 -87.201)" fill="#fff"/>
    <path id="Path_28" data-name="Path 28" d="M227.1,2.258a.466.466,0,0,0,.466-.466V.466a.466.466,0,1,0-.932,0V1.793A.466.466,0,0,0,227.1,2.258Z" transform="translate(-218.814)" fill="#fff"/>
    <path id="Path_29" data-name="Path 29" d="M186.192,389.788a.6.6,0,0,0-.358-.551H181.1a1.552,1.552,0,0,1-.358,1.652.6.6,0,0,1,0,1.1.6.6,0,0,0,.6.6h.13a1.215,1.215,0,0,0,1.112.725h1.756a1.215,1.215,0,0,0,1.112-.725h.13a2.528,2.528,0,0,1,.6-1.705.6.6,0,0,1,0-1.1Z" transform="translate(-175.185 -370.083)" fill="#fff"/>
  </g>
</svg>
