<svg id="icon_social_twitterbird" data-name="icon / social / twitterbird" xmlns="http://www.w3.org/2000/svg" width="24" height="24" viewBox="0 0 24 24">
  <g id="social_twitterbird" data-name="social twitterbird">
    <path id="icon" d="M21.9,1.641a.378.378,0,0,0-.453-.081c-.2.1-.509.243-.843.373A5.556,5.556,0,0,0,21.228.477a.379.379,0,0,0-.577-.413,8.052,8.052,0,0,1-2.2.9A4.972,4.972,0,0,0,15.523.012a4.854,4.854,0,0,0-3.458,1.433A5.107,5.107,0,0,0,10.613,4.9C6.931,4.53,4.676,2.3,2.951.143A.385.385,0,0,0,2.628,0a.379.379,0,0,0-.3.185,5.572,5.572,0,0,0-.605,4.266A4.828,4.828,0,0,0,2.4,5.969,3.431,3.431,0,0,1,1.377,5.4a.38.38,0,0,0-.619.294,5.223,5.223,0,0,0,2.755,4.381,7.143,7.143,0,0,1-.747-.192.376.376,0,0,0-.4.112.381.381,0,0,0-.061.407,5.651,5.651,0,0,0,3.9,3.139A10.193,10.193,0,0,1,.422,14.8a.374.374,0,0,0-.4.26.38.38,0,0,0,.175.447A14.284,14.284,0,0,0,7.229,17.45h0A13.57,13.57,0,0,0,17.276,12.8,11.682,11.682,0,0,0,20.5,4.343a5.3,5.3,0,0,0,.948-1.389c.151-.277.311-.569.492-.855a.378.378,0,0,0-.041-.458" transform="translate(1 3)" fill="#fff"/>
  </g>
</svg>
