<svg xmlns="http://www.w3.org/2000/svg" width="261.756" height="225.149" viewBox="0 0 261.756 225.149"><defs><style>.a{fill:#e6e6e6;}.b{fill:#5d37b2;}.c{fill:#fff;}.d{fill:#7d00b5;}.e{fill:#3f3d56;}.f{fill:#ffb8b8;}.g{fill:#2f2e41;}</style></defs><g transform="translate(0.001 -0.001)"><circle class="a" cx="2.422" cy="2.422" r="2.422" transform="translate(-0.001 0.001)"/><circle class="a" cx="2.422" cy="2.422" r="2.422" transform="translate(12.259 0.001)"/><circle class="a" cx="2.422" cy="2.422" r="2.422" transform="translate(24.518 0.001)"/><circle class="a" cx="2.422" cy="2.422" r="2.422" transform="translate(36.777 0.001)"/><circle class="a" cx="2.422" cy="2.422" r="2.422" transform="translate(49.037 0.001)"/><circle class="a" cx="2.422" cy="2.422" r="2.422" transform="translate(61.296 0.001)"/><circle class="a" cx="2.422" cy="2.422" r="2.422" transform="translate(73.555 0.001)"/><circle class="a" cx="2.422" cy="2.422" r="2.422" transform="translate(85.814 0.001)"/><circle class="a" cx="2.422" cy="2.422" r="2.422" transform="translate(98.074 0.001)"/><circle class="a" cx="2.422" cy="2.422" r="2.422" transform="translate(110.333 0.001)"/><circle class="a" cx="2.422" cy="2.422" r="2.422" transform="translate(-0.001 12.414)"/><circle class="a" cx="2.422" cy="2.422" r="2.422" transform="translate(12.259 12.414)"/><circle class="a" cx="2.422" cy="2.422" r="2.422" transform="translate(24.518 12.414)"/><circle class="b" cx="2.422" cy="2.422" r="2.422" transform="translate(36.777 12.414)"/><circle class="a" cx="2.422" cy="2.422" r="2.422" transform="translate(49.037 12.414)"/><circle class="a" cx="2.422" cy="2.422" r="2.422" transform="translate(61.296 12.414)"/><circle class="a" cx="2.422" cy="2.422" r="2.422" transform="translate(73.555 12.414)"/><circle class="a" cx="2.422" cy="2.422" r="2.422" transform="translate(85.814 12.414)"/><circle class="a" cx="2.422" cy="2.422" r="2.422" transform="translate(98.074 12.414)"/><circle class="a" cx="2.422" cy="2.422" r="2.422" transform="translate(110.333 12.414)"/><circle class="a" cx="2.422" cy="2.422" r="2.422" transform="translate(-0.001 24.827)"/><circle class="a" cx="2.422" cy="2.422" r="2.422" transform="translate(12.259 24.827)"/><circle class="a" cx="2.422" cy="2.422" r="2.422" transform="translate(24.518 24.827)"/><circle class="a" cx="2.422" cy="2.422" r="2.422" transform="translate(36.777 24.827)"/><circle class="a" cx="2.422" cy="2.422" r="2.422" transform="translate(49.037 24.827)"/><circle class="a" cx="2.422" cy="2.422" r="2.422" transform="translate(61.296 24.827)"/><circle class="a" cx="2.422" cy="2.422" r="2.422" transform="translate(73.555 24.827)"/><circle class="a" cx="2.422" cy="2.422" r="2.422" transform="translate(85.814 24.827)"/><circle class="a" cx="2.422" cy="2.422" r="2.422" transform="translate(98.074 24.827)"/><circle class="a" cx="2.422" cy="2.422" r="2.422" transform="translate(110.333 24.827)"/><circle class="a" cx="2.422" cy="2.422" r="2.422" transform="translate(-0.001 37.24)"/><circle class="a" cx="2.422" cy="2.422" r="2.422" transform="translate(12.259 37.24)"/><circle class="a" cx="2.422" cy="2.422" r="2.422" transform="translate(24.518 37.24)"/><circle class="a" cx="2.422" cy="2.422" r="2.422" transform="translate(36.777 37.24)"/><circle class="a" cx="2.422" cy="2.422" r="2.422" transform="translate(49.037 37.24)"/><circle class="a" cx="2.422" cy="2.422" r="2.422" transform="translate(61.296 37.24)"/><circle class="a" cx="2.422" cy="2.422" r="2.422" transform="translate(73.555 37.24)"/><circle class="a" cx="2.422" cy="2.422" r="2.422" transform="translate(85.814 37.24)"/><circle class="a" cx="2.422" cy="2.422" r="2.422" transform="translate(98.074 37.24)"/><circle class="a" cx="2.422" cy="2.422" r="2.422" transform="translate(110.333 37.24)"/><circle class="a" cx="2.422" cy="2.422" r="2.422" transform="translate(-0.001 49.653)"/><circle class="b" cx="2.422" cy="2.422" r="2.422" transform="translate(12.259 49.653)"/><circle class="a" cx="2.422" cy="2.422" r="2.422" transform="translate(24.518 49.653)"/><circle class="a" cx="2.422" cy="2.422" r="2.422" transform="translate(36.777 49.653)"/><circle class="a" cx="2.422" cy="2.422" r="2.422" transform="translate(49.037 49.653)"/><circle class="a" cx="2.422" cy="2.422" r="2.422" transform="translate(61.296 49.653)"/><circle class="a" cx="2.422" cy="2.422" r="2.422" transform="translate(73.555 49.653)"/><circle class="a" cx="2.422" cy="2.422" r="2.422" transform="translate(85.814 49.653)"/><circle class="a" cx="2.422" cy="2.422" r="2.422" transform="translate(98.074 49.653)"/><circle class="a" cx="2.422" cy="2.422" r="2.422" transform="translate(110.333 49.653)"/><circle class="a" cx="2.422" cy="2.422" r="2.422" transform="translate(-0.001 62.067)"/><circle class="a" cx="2.422" cy="2.422" r="2.422" transform="translate(12.259 62.067)"/><circle class="a" cx="2.422" cy="2.422" r="2.422" transform="translate(24.518 62.067)"/><circle class="a" cx="2.422" cy="2.422" r="2.422" transform="translate(36.777 62.067)"/><circle class="a" cx="2.422" cy="2.422" r="2.422" transform="translate(49.037 62.067)"/><circle class="a" cx="2.422" cy="2.422" r="2.422" transform="translate(61.296 62.067)"/><circle class="a" cx="2.422" cy="2.422" r="2.422" transform="translate(73.555 62.067)"/><circle class="a" cx="2.422" cy="2.422" r="2.422" transform="translate(85.814 62.067)"/><circle class="a" cx="2.422" cy="2.422" r="2.422" transform="translate(98.074 62.067)"/><circle class="a" cx="2.422" cy="2.422" r="2.422" transform="translate(110.333 62.067)"/><circle class="a" cx="2.422" cy="2.422" r="2.422" transform="translate(-0.001 74.48)"/><circle class="a" cx="2.422" cy="2.422" r="2.422" transform="translate(12.259 74.48)"/><circle class="b" cx="2.422" cy="2.422" r="2.422" transform="translate(24.518 74.48)"/><circle class="a" cx="2.422" cy="2.422" r="2.422" transform="translate(36.777 74.48)"/><circle class="a" cx="2.422" cy="2.422" r="2.422" transform="translate(49.037 74.48)"/><circle class="a" cx="2.422" cy="2.422" r="2.422" transform="translate(61.296 74.48)"/><circle class="a" cx="2.422" cy="2.422" r="2.422" transform="translate(73.555 74.48)"/><circle class="a" cx="2.422" cy="2.422" r="2.422" transform="translate(85.814 74.48)"/><circle class="a" cx="2.422" cy="2.422" r="2.422" transform="translate(98.074 74.48)"/><circle class="a" cx="2.422" cy="2.422" r="2.422" transform="translate(110.333 74.48)"/><circle class="a" cx="2.422" cy="2.422" r="2.422" transform="translate(-0.001 86.893)"/><circle class="a" cx="2.422" cy="2.422" r="2.422" transform="translate(12.259 86.893)"/><circle class="a" cx="2.422" cy="2.422" r="2.422" transform="translate(24.518 86.893)"/><circle class="a" cx="2.422" cy="2.422" r="2.422" transform="translate(36.777 86.893)"/><circle class="a" cx="2.422" cy="2.422" r="2.422" transform="translate(49.037 86.893)"/><circle class="a" cx="2.422" cy="2.422" r="2.422" transform="translate(61.296 86.893)"/><circle class="a" cx="2.422" cy="2.422" r="2.422" transform="translate(73.555 86.893)"/><circle class="a" cx="2.422" cy="2.422" r="2.422" transform="translate(85.814 86.893)"/><circle class="a" cx="2.422" cy="2.422" r="2.422" transform="translate(98.074 86.893)"/><circle class="a" cx="2.422" cy="2.422" r="2.422" transform="translate(110.333 86.893)"/><circle class="a" cx="2.422" cy="2.422" r="2.422" transform="translate(-0.001 99.306)"/><circle class="a" cx="2.422" cy="2.422" r="2.422" transform="translate(12.259 99.306)"/><circle class="a" cx="2.422" cy="2.422" r="2.422" transform="translate(24.518 99.306)"/><circle class="a" cx="2.422" cy="2.422" r="2.422" transform="translate(36.777 99.306)"/><circle class="a" cx="2.422" cy="2.422" r="2.422" transform="translate(49.037 99.306)"/><circle class="a" cx="2.422" cy="2.422" r="2.422" transform="translate(61.296 99.306)"/><circle class="a" cx="2.422" cy="2.422" r="2.422" transform="translate(73.555 99.306)"/><circle class="a" cx="2.422" cy="2.422" r="2.422" transform="translate(85.814 99.306)"/><circle class="a" cx="2.422" cy="2.422" r="2.422" transform="translate(98.074 99.306)"/><circle class="a" cx="2.422" cy="2.422" r="2.422" transform="translate(110.333 99.306)"/><circle class="a" cx="2.422" cy="2.422" r="2.422" transform="translate(-0.001 111.719)"/><circle class="a" cx="2.422" cy="2.422" r="2.422" transform="translate(12.259 111.719)"/><circle class="a" cx="2.422" cy="2.422" r="2.422" transform="translate(24.518 111.719)"/><circle class="a" cx="2.422" cy="2.422" r="2.422" transform="translate(36.777 111.719)"/><circle class="a" cx="2.422" cy="2.422" r="2.422" transform="translate(49.037 111.719)"/><circle class="a" cx="2.422" cy="2.422" r="2.422" transform="translate(61.296 111.719)"/><circle class="a" cx="2.422" cy="2.422" r="2.422" transform="translate(73.555 111.719)"/><circle class="a" cx="2.422" cy="2.422" r="2.422" transform="translate(85.814 111.719)"/><circle class="a" cx="2.422" cy="2.422" r="2.422" transform="translate(98.074 111.719)"/><circle class="a" cx="2.422" cy="2.422" r="2.422" transform="translate(110.333 111.719)"/><path class="a" d="M444.312,193.83a3.062,3.062,0,0,1,3.062,3.062V319.367a3.062,3.062,0,0,1-3.062,3.062H356.436a3.062,3.062,0,0,1-3.062-3.062V196.892a3.062,3.062,0,0,1,3.062-3.062h87.876" transform="translate(-301.987 -172.185)"/><path class="c" d="M362.991,325.209h87.163V203.447H362.991Z" transform="translate(-308.185 -178.384)"/><path class="a" d="M464.815,257.643a.612.612,0,0,1,.612.612v1.225a.612.612,0,0,1-.612.612H416.438a.612.612,0,0,1-.612-.612v-1.225a.612.612,0,0,1,.612-.612h48.378" transform="translate(-342.239 -213.316)"/><path class="a" d="M464.815,274.009a.612.612,0,0,1,.612.612v1.225a.612.612,0,0,1-.612.612H416.438a.612.612,0,0,1-.612-.612v-1.225a.612.612,0,0,1,.612-.612h48.378" transform="translate(-342.239 -223.864)"/><path class="d" d="M464.815,290.376a.612.612,0,0,1,.612.612v1.225a.612.612,0,0,1-.612.612H416.438a.612.612,0,0,1-.612-.612v-1.225a.612.612,0,0,1,.612-.612h48.378" transform="translate(-342.239 -234.414)"/><path class="a" d="M464.815,307.1a.612.612,0,0,1,.612.612v1.225a.612.612,0,0,1-.612.612H416.438a.612.612,0,0,1-.612-.612v-1.225a.612.612,0,0,1,.612-.612h48.378" transform="translate(-342.239 -245.194)"/><path class="a" d="M464.815,323.467a.612.612,0,0,1,.612.612V325.3a.612.612,0,0,1-.612.612H416.438a.612.612,0,0,1-.612-.612v-1.225a.612.612,0,0,1,.612-.612h48.378" transform="translate(-342.239 -255.742)"/><path class="a" d="M464.815,339.834a.612.612,0,0,1,.612.612v1.225a.612.612,0,0,1-.612.612H416.438a.612.612,0,0,1-.612-.612v-1.225a.612.612,0,0,1,.612-.612h48.378" transform="translate(-342.239 -266.292)"/><path class="d" d="M417.128,394.89a.712.712,0,0,0-.711.711v33.027a.712.712,0,0,0,.711.711h47.677a.712.712,0,0,0,.711-.711V395.6a.712.712,0,0,0-.711-.711Z" transform="translate(-342.621 -301.778)"/><path class="e" d="M276.333,86.44l-.5-.133,10.922-41.086h63.351v.518H287.153Z" transform="translate(-177.787 -29.147)"/><path class="e" d="M698.3,174.468a5.435,5.435,0,1,1,5.435-5.435A5.435,5.435,0,0,1,698.3,174.468Zm0-10.353a4.918,4.918,0,1,0,4.918,4.918,4.918,4.918,0,0,0-4.918-4.918Z" transform="translate(-520.802 -152.699)"/><circle class="b" cx="2.071" cy="2.071" r="2.071" transform="translate(175.425 14.263)"/><path class="e" d="M138.563,356.941l.5.134-11,41.065-63.351-.121V397.5l62.953.121Z" transform="translate(-41.71 -230.064)"/><path class="e" d="M249.11,589.4a5.435,5.435,0,1,1-5.446,5.425A5.435,5.435,0,0,1,249.11,589.4Zm-.02,10.353a4.918,4.918,0,1,0-4.908-4.927,4.918,4.918,0,0,0,4.908,4.927Z" transform="translate(-231.274 -427.145)"/><circle class="b" cx="2.071" cy="2.071" r="2.071" transform="translate(15.755 165.615)"/><path class="f" d="M610.2,563.925h-3.653L607.2,543.7l9.655.522Z" transform="translate(-390.95 -350.44)"/><path class="g" d="M803.594,743.683c-1.1.5-2.026-3.574-2.956-2.66-2.6,2.557-5.29,3.113-8.762,2l-.08-.014a1.627,1.627,0,0,1-1.025-2.119h0a1.626,1.626,0,0,1,1.128-1.007l2.767-.692,4.344-7.64,4.435-.3h0a10.6,10.6,0,0,1,1.96,9.039C805,741.931,804.38,743.324,803.594,743.683Z" transform="translate(-583.842 -518.577)"/><path class="f" d="M695.92,555.417l-3.4,1.344-6.831-19.045,9.17-3.066Z" transform="translate(-441.959 -344.606)"/><path class="g" d="M913.112,735.035c-.84.874-3.2-2.578-3.727-1.386-1.479,3.334-3.774,4.841-7.414,5.08l-.08.017a1.626,1.626,0,0,1-1.733-1.594h0a1.626,1.626,0,0,1,.679-1.351l2.318-1.661,1.23-8.7,4.014-1.91h0a10.6,10.6,0,0,1,5.147,7.684C913.776,732.888,913.711,734.412,913.112,735.035Z" transform="translate(-654.414 -513.6)"/><path class="f" d="M875.253,408.243l-5.608,1.442a2.935,2.935,0,0,1-3.664-2.73h0a2.935,2.935,0,0,1,3.028-3.047l4.94.159,9.519-3.466-9-6.71,1.044-9.394,17.535,14.077a2.913,2.913,0,0,1,1.082,2.064h0A2.913,2.913,0,0,1,892,403.656C887.887,407.009,881.9,408.036,875.253,408.243Z" transform="translate(-632.383 -295.079)"/><circle class="f" cx="9.133" cy="9.133" r="9.133" transform="translate(220.951 59.672)"/><path class="f" d="M860.224,346.6l-12.264,4.958a16.575,16.575,0,0,0-2.87-10.959l10.176-2.348C855.134,341.358,856.815,344.136,860.224,346.6Z" transform="translate(-618.92 -265.271)"/><path class="d" d="M851.086,378.749c-9.886.791-15.294-.522-23.615-5.349l3.131-7.306h0a6.043,6.043,0,0,1,2.489-5.786l3.251-2.3,9.916-2.87.445.022a5.428,5.428,0,0,1,5.141,5C854,366.6,854.012,372.821,851.086,378.749Z" transform="translate(-607.564 -276.153)"/><path class="g" d="M843.734,421.456,822.6,419.108l-1.566-6.784c-3.47-5.239-1.956-10.037,2.087-14.612,7.37,4.73,14.21,6.773,24.006,5.219C844.521,409.265,842.115,415.492,843.734,421.456Z" transform="translate(-602.169 -303.596)"/><path class="g" d="M849.954,537.426l-16.83-.913-5.479-43.576-4.436,43.315-19.961-.913c6.089-28.476,10.319-55.509,9.133-80.368l20.875,1.827c7.075,7.459,10.588,19.367,12.655,33.53A381.418,381.418,0,0,1,849.954,537.426Z" transform="translate(-591.95 -340.502)"/><circle class="g" cx="3.139" cy="3.139" r="3.139" transform="translate(236.999 54.212)"/><path class="g" d="M874.563,286.749a3.137,3.137,0,0,1,3.138-2.934c-.065-.008-.129-.018-.2-.022a3.139,3.139,0,0,0-.4,6.265c.066,0,.131,0,.2,0A3.137,3.137,0,0,1,874.563,286.749Z" transform="translate(-637.66 -230.166)"/><path class="g" d="M842.6,294.335c-2.8-2.322-10.83.629-11.348,2.191-3.786.516-6.652,2.725-6.652,6.652h0a11.358,11.358,0,0,0,7.578,0c4.411,3.595,4.714,8.114,2.031,13.3l3.3.066,4.091-5.979.2,6.065,7.565-.152v-8.691a18.17,18.17,0,0,0-1.94-8.325C846.238,297.176,844.408,295.839,842.6,294.335Z" transform="translate(-605.71 -236.412)"/><ellipse class="f" cx="1.501" cy="2.102" rx="1.501" ry="2.102" transform="translate(228.339 69.075)"/><path class="d" d="M794.724,559.928a.527.527,0,0,1,.527.527V581.54a.527.527,0,0,1-.527.527H779.6a.527.527,0,0,1-.527-.527V560.455a.527.527,0,0,1,.527-.527h15.129" transform="translate(-576.366 -408.152)"/><path class="f" d="M818.188,430.757l.511,8.856a3.846,3.846,0,0,1-4.4,4.026h0c-2.25-.331-2.3-2.531-1.75-4.737l2.1-8.405c5.155-18.483,6.547-36.625,6.286-54.318a4.442,4.442,0,0,1,4.562-4.519h0a4.44,4.44,0,0,1,4.308,4.595C829.079,397.03,826.049,415.9,818.188,430.757Z" transform="translate(-597.759 -286.803)"/></g></svg>