<svg id="icon_social_youtube" data-name="icon / social / youtube" xmlns="http://www.w3.org/2000/svg" width="24" height="24" viewBox="0 0 24 24">
  <g id="social_youtube" data-name="social youtube">
    <path id="icon" d="M11,16c-.069,0-6.9-.005-8.6-.476a2.821,2.821,0,0,1-1.94-1.987A31.019,31.019,0,0,1,0,8.021a31.057,31.057,0,0,1,.45-5.475A2.815,2.815,0,0,1,2.4.476C4.1.005,10.931,0,11,0s6.9,0,8.59.435A2.817,2.817,0,0,1,21.54,2.5,31.185,31.185,0,0,1,22,8.021a31.124,31.124,0,0,1-.45,5.433,2.817,2.817,0,0,1-1.95,2.07C17.9,15.995,11.069,16,11,16ZM8.75,4.637h0v6.747L14.5,8.021,8.75,4.637Z" transform="translate(1 4)" fill="#fff"/>
  </g>
</svg>
